PathFileType	4	(X/Y/Z)	D:\TRACE\spotREDO_2-26-24\spot_Both_Motion_1_8-v60.trc
DataRate	CameraRate	NumFrames	NumMarkers	Units	OrigDataRate	OrigDataStartFrame	OrigNumFrames
100.00	100.00	      27	9	mm	100.00	4376	      7000
Frame#	Time	front left toe			Front right toe			aft left toe			aft right toe			Arm			FL body			FR body			AL Body			AR Body			
		X1	Y1	Z1	X2	Y2	Z2	X3	Y3	Z3	X4	Y4	Z4	X5	Y5	Z5	X6	Y6	Z6	X7	Y7	Z7	X8	Y8	Z8	X9	Y9	Z9	

4376	43.750	-265.72269	6.87992	-443.69992	171.48155	14.05798	-385.79309	-339.12085	19.54679	114.59032	120.18694	29.62893	150.90085	-129.17847	722.12006	-777.81494	-161.69826	584.66516	-506.54645	-7.54051	588.01379	-494.74130	-235.83929	563.97064	374.29916	-95.24896	568.06445	387.16400	
4377	43.760	-264.46576	6.73138	-443.96805	172.70441	13.74549	-385.29013	-338.65237	19.48205	114.36277	120.68348	29.83673	151.08345	-129.50656	722.30603	-776.99316	-159.64731	584.62415	-506.08502	-5.03243	587.66565	-493.60660	-236.21635	563.86865	374.55869	-95.83984	567.74121	387.93851	
4378	43.770	-263.54596	6.78367	-444.20032	173.71205	13.40450	-385.19370	-337.83569	19.44808	114.39599	121.18444	30.02678	151.09282	-130.12044	722.33484	-775.79150	-157.00407	584.61884	-505.51599	-2.55808	587.45245	-492.56021	-236.33107	563.77039	374.88928	-96.06216	567.42841	388.70331	
4379	43.780	-262.54974	6.75096	-444.23071	174.46326	13.02472	-385.27454	-337.24365	19.57390	114.34660	121.75414	30.07817	151.09428	-131.01860	722.22748	-775.01978	-155.16826	584.42340	-504.66202	-0.49816	587.13153	-491.66718	-235.91695	563.67017	375.61633	-95.68571	567.24200	389.66864	
4380	43.790	-261.79868	6.30827	-444.25732	175.40430	12.85274	-385.24841	-336.37866	19.70172	114.17444	122.56914	30.21959	151.18518	-131.85114	722.06885	-774.43573	-153.54137	584.40558	-503.71725	1.21591	587.05902	-490.47418	-235.12936	563.60852	376.43701	-94.72738	566.95453	390.58499	
4381	43.800	-260.85394	6.02729	-444.33749	176.30788	12.71582	-385.11322	-335.37152	19.98377	114.13781	123.56339	30.23018	151.09903	-132.59631	721.70020	-773.59271	-152.11684	584.33997	-502.70789	2.55718	586.86652	-489.52249	-233.85071	563.47290	377.40588	-93.55908	567.05957	391.54190	
4382	43.810	-260.43811	5.89098	-444.35788	176.85150	12.30975	-385.47760	-334.86172	20.23233	114.18040	124.10526	30.08167	150.98222	-133.08038	721.36774	-773.05231	-151.07242	584.26685	-501.72803	3.43666	586.89661	-488.60449	-231.73732	563.35480	378.65091	-91.62474	567.03778	392.70438	
4383	43.820	-259.86682	5.39758	-444.20868	177.01877	12.31640	-385.69223	-333.50626	20.19308	114.23536	125.33119	30.13100	151.06628	-133.44650	721.22522	-772.95868	-150.11189	583.94464	-500.51004	4.30824	586.74780	-487.61166	-229.87553	563.27435	379.79834	-89.55634	566.90918	393.87219	
4384	43.830	-259.18011	5.08862	-444.25977	178.09671	12.17403	-386.03778	-332.60614	20.65507	114.19877	126.64214	30.18254	150.87404	-132.93887	720.88879	-772.67053	-149.37982	583.75317	-499.23361	5.01222	586.69415	-486.74356	-227.70541	563.30035	381.28998	-87.39210	566.88196	394.95367	
4385	43.840	-258.59702	4.75129	-444.07608	178.72353	12.31533	-386.17841	-331.60129	21.04662	114.22115	127.48307	30.00417	150.76428	-132.54565	720.62177	-772.78839	-149.30180	583.66016	-497.93469	5.58061	586.48138	-485.57419	-225.44502	563.23938	382.67477	-84.81384	566.79370	396.12695	
4386	43.850	-257.75092	4.20242	-443.98465	179.26434	12.17731	-386.57864	-330.51843	21.13418	114.16846	128.37511	30.12497	150.42763	-131.58154	720.32477	-772.97424	-148.34767	583.21521	-496.49377	6.32537	586.32446	-484.50098	-222.76753	563.26257	384.24875	-82.38666	567.09534	397.44470	
4387	43.860	-257.02951	3.96854	-444.01874	179.85867	12.31835	-386.44595	-329.67786	21.31656	114.49440	129.46156	30.25409	150.42072	-130.90245	719.93042	-773.28094	-147.66647	582.94592	-494.92770	6.89089	585.96594	-483.11890	-220.43976	563.36969	385.98679	-80.21496	567.11176	398.74805	
4388	43.870	-256.56363	3.64610	-444.00302	180.42758	11.55097	-386.80106	-328.80841	21.32184	114.46320	129.94254	30.31561	150.12755	-129.79797	719.39740	-773.41656	-146.80443	582.62341	-493.17639	8.05513	585.57843	-481.87622	-218.42584	563.55817	387.76111	-77.83632	567.24780	400.32745	
4389	43.880	-255.53662	3.16763	-444.04150	181.61998	11.39368	-386.84247	-328.43655	21.61743	114.46524	130.78091	30.45889	150.02280	-128.85092	719.19183	-773.88593	-145.38660	582.35742	-491.50040	9.33810	585.13440	-480.44028	-216.41980	563.61481	389.51065	-75.74796	567.15930	401.87387	
4390	43.890	-254.73036	2.54992	-444.11835	182.73206	11.30016	-386.73468	-327.10721	21.51274	114.15813	131.68774	30.66832	150.12862	-127.98542	718.71423	-774.18500	-143.64230	581.90790	-489.93271	10.95696	584.54034	-478.76819	-213.92726	563.65778	391.18250	-73.43851	567.10565	403.62024	
4391	43.900	-254.99615	1.65613	-444.81696	183.57658	10.83249	-386.20593	-326.63644	22.01998	113.83756	132.89119	30.99623	150.53210	-127.41685	718.57642	-774.37585	-141.66667	581.32916	-487.94739	12.62558	583.78162	-476.87704	-212.11842	563.89984	393.19806	-71.69704	567.36688	405.51218	
4392	43.910	-260.09970	6.64747	-441.75485	185.05270	9.24170	-385.84454	-325.43506	21.80715	114.02779	134.34790	29.50004	151.02441	-126.74006	718.42181	-775.06396	-139.57979	581.32129	-486.26575	15.08621	583.81757	-474.82416	-210.31305	563.78033	395.07211	-69.66077	566.22241	407.15854	
4393	43.920	-256.41306	15.82498	-436.39609	186.83629	8.93089	-384.78867	-323.56595	22.36882	114.43310	135.99992	29.10601	151.45659	-125.85749	718.39093	-775.53308	-136.97337	580.17139	-484.53598	17.45024	583.16217	-472.84024	-209.40811	563.55585	396.51215	-68.07346	566.91260	409.19284	
4394	43.930	-254.56003	27.94284	-433.98309	187.98605	8.22051	-385.31647	-322.42584	22.11542	114.31979	136.64319	30.02817	150.27371	-124.70843	718.71130	-775.49310	-134.33659	578.85278	-482.96988	20.02302	582.90216	-471.11877	-208.15971	563.97156	398.11407	-67.81316	568.78589	410.86124	
4395	43.940	-259.88953	40.53756	-436.20798	189.09055	8.33918	-385.06445	-321.63678	22.51059	114.05490	137.06998	30.19091	151.36533	-124.05294	719.02203	-775.41333	-132.23421	578.22552	-481.38843	22.13766	582.59210	-469.31662	-206.88277	563.99817	399.50076	-66.71652	569.06750	412.44543	
4396	43.950	-259.40991	54.93023	-442.34851	189.81213	7.89131	-385.09930	-321.00992	22.58496	114.23186	138.90558	30.00358	150.57524	-124.03776	718.89905	-774.97449	-130.36201	577.40692	-479.82440	24.00555	582.25195	-467.65164	-206.07516	563.85968	400.96039	-65.31225	569.12927	414.33017	
4397	43.960	-265.23065	67.40126	-448.01538	190.19325	7.80092	-385.17487	-319.88129	22.92002	113.97487	140.57825	29.87248	151.40154	-124.32985	718.41473	-775.33618	-128.77705	577.28394	-478.15103	25.74140	582.29755	-466.08688	-204.91615	563.42554	402.49109	-64.27807	568.25830	415.51480	
4398	43.970	-262.22348	80.18775	-450.68979	191.34836	8.10962	-384.88638	-319.01117	23.15924	113.90208	141.16202	29.59921	150.96207	-124.60324	718.14880	-775.59912	-127.51254	577.51105	-477.16769	27.23523	582.37128	-464.65530	-203.74918	563.17786	403.81339	-63.42709	568.63123	416.99277	
4399	43.980	-264.31799	89.83501	-449.66266	192.50401	8.03513	-384.72958	-317.90668	22.88664	113.98149	141.88303	29.68569	151.10103	-124.67706	718.02246	-775.32397	-126.33911	578.01532	-475.88303	28.40851	582.68060	-463.31973	-202.92078	562.71014	404.91962	-62.60108	567.81567	418.21408	
4400	43.990	-263.63974	98.41712	-447.41714	192.93428	7.60381	-385.05521	-317.33191	22.84622	114.15314	143.01636	29.96928	151.21776	-124.71340	717.92078	-775.25677	-124.56237	577.62848	-474.30109	29.38234	582.87292	-462.29913	-202.38391	562.09271	405.94836	-61.81903	567.53870	419.39572	
4401	44.000	-263.79474	107.30249	-445.98251	194.42445	6.86968	-385.41699	-316.38226	22.85020	114.09795	143.81033	30.08214	151.15015	-124.38364	717.85895	-775.19666	-124.41972	577.76105	-473.68018	30.41247	582.79901	-461.30270	-201.46078	561.72034	407.07318	-61.15113	567.13599	420.40463	
4402	44.010	-266.34763	114.81588	-445.74368	195.10648	7.34560	-385.33121	-315.23383	22.80802	114.02800	144.65797	30.17225	151.20575	-123.71927	717.70764	-775.05640	-124.15814	577.67188	-472.62454	30.51093	582.97296	-460.42709	-200.92226	561.33118	407.83078	-60.35763	566.83160	421.34457	
